<?xml version="1.0" standalone="no"?>
<!DOCTYPE svg PUBLIC "-//W3C//DTD SVG 20010904//EN"
 "http://www.w3.org/TR/2001/REC-SVG-20010904/DTD/svg10.dtd">
<svg version="1.0" xmlns="http://www.w3.org/2000/svg"
 width="260.000000pt" height="260.000000pt" viewBox="0 0 260.000000 260.000000"
 preserveAspectRatio="xMidYMid meet">
<metadata>
Created by potrace 1.14, written by Peter Selinger 2001-2017
</metadata>
<g transform="translate(0.000000,260.000000) scale(0.100000,-0.100000)"
fill="#000000" stroke="none">
<path d="M1450 2250 c-213 -49 -331 -135 -496 -360 -39 -52 -84 -117 -102
-145 -61 -97 -169 -321 -211 -440 -137 -380 -213 -556 -295 -680 -53 -79 -139
-175 -186 -208 -13 -9 -22 -19 -19 -21 10 -10 177 -30 344 -41 409 -28 1606
-27 1745 0 14 3 37 6 53 7 15 1 27 3 27 5 0 1 -23 14 -51 29 -86 43 -211 132
-260 184 -81 88 -184 315 -206 455 -10 62 -10 243 -1 310 20 143 96 262 198
308 60 27 159 27 220 0 48 -21 216 -128 226 -144 3 -5 10 -9 16 -9 7 0 9 45 6
138 -4 108 -9 151 -27 201 -71 205 -268 359 -524 412 -119 24 -351 24 -457 -1z"/>
</g>
</svg>
